<?xml version="1.0" ?><svg height="256px" id="Layer_1" style="enable-background:new 0 0 256 256;" version="1.1" viewBox="0 0 256 256" width="256px" xml:space="preserve" xmlns="http://www.w3.org/2000/svg" xmlns:xlink="http://www.w3.org/1999/xlink"><style type="text/css">
	.st0{fill:none;stroke:#000000;stroke-width:4;stroke-linecap:round;stroke-linejoin:round;stroke-miterlimit:10;}
</style><g><path class="st0" d="M118.489,204.01c0.668-30.724-0.583-59.627-0.514-61.433c0.099-2.572-16.945,1.061-19.046-1.053   c-2.101-2.114-3.309-18.205-0.521-19.591s15.355,1.129,18.007-0.526c2.652-1.655-11.513-55.269,46.601-43.421   c1.589,0.795-0.132,18.732-1.059,20.122c-0.927,1.39-12.708-1.787-19.062,3.177c-6.354,4.964-3.707,18.664-2.383,19.591   c1.324,0.927,20.188,0.198,21.445,1.589s1.456,18.798,0,20.122c-1.456,1.324-20.819-2.41-22.769-1.058   c-1.606,1.113,4.224,60.038,2.558,62.373c-1.666,2.335-7.731,2.133-11.56,2.226"/><path class="st0" d="M136.577,243.358c60.912-1.648,108.145-53.478,104.395-110.472c-3.662-55.647-54.02-97.612-108.923-95.753   C76.39,39.017,29.02,85.605,29.68,141.555c1.549,87.443,85.505,102.61,89.2,101.551"/></g></svg>