<?xml version="1.0" ?><svg height="256px" id="Layer_1" style="enable-background:new 0 0 256 256;" version="1.1" viewBox="0 0 256 256" width="256px" xml:space="preserve" xmlns="http://www.w3.org/2000/svg" xmlns:xlink="http://www.w3.org/1999/xlink"><style type="text/css">
	.st0{fill:none;stroke:#000000;stroke-width:4;stroke-linecap:round;stroke-linejoin:round;stroke-miterlimit:10;}
</style><path class="st0" d="M228.649,174.606c27.113-54.57,3.489-120.595-48.607-144.013C129.178,7.728,68.497,32.522,44.388,81.884  c-24.441,50.042-5.511,113.729,44.214,139.386c77.956,39.643,130.727-27.393,131.525-31.152"/><path class="st0" d="M142.285,134.396c4.54-3.892,11.745-8.286,11.313-10.665c-0.432-2.378-4.904-7.198-13.042-7.712  c-0.961-0.061-15.523-0.691-22.198,9.945c-5.438,8.665-3.031,18.573,2.378,25.366c6.589,8.274,19.269,10.46,29.403,4.898  c18.701-13.08,8.253-26.589,9.442-29.615c9.296-14.702,37.328-11.242,39.49-12.756c2.162-1.513,3.892-16.107,2.378-18.809  s-29.591-24.071-66.082-22.701C104.651,73.5,81.21,90.832,78.939,93.967c-2.27,3.135-3.892,20.755-1.73,22.052  s29.295,1.405,31.349-0.216c2.054-1.621-2.702-16.972-0.865-20.107c1.838-3.135,15.898-6.736,29.187-7.135  c15.377-0.462,31.457,4.324,33.079,6.918c1.622,2.594-1.73,14.053-1.081,16.431c0.649,2.378,20.826,32.322,20.178,46.483  c-0.649,14.161-5.73,19.566-7.567,20.323c-1.837,0.757-85.756,1.189-87.918-0.432c-2.162-1.622-5.189-13.513-4.757-23.133  s7.253-24.573,10.952-31.565"/></svg>