<?xml version="1.0" ?><svg height="256px" id="Layer_1" style="enable-background:new 0 0 256 256;" version="1.1" viewBox="0 0 256 256" width="256px" xml:space="preserve" xmlns="http://www.w3.org/2000/svg" xmlns:xlink="http://www.w3.org/1999/xlink"><style type="text/css">
	.st0{fill:none;stroke:#000000;stroke-width:4;stroke-linecap:round;stroke-linejoin:round;stroke-miterlimit:10;}
	.st1{fill:none;stroke:#000000;stroke-width:4;stroke-linecap:round;stroke-linejoin:round;}
</style><path class="st0" d="M38.176,84.753c-24.842,52.657-0.993,115.273,49.229,136.634c49.035,20.856,106.523-4.008,128.596-51.631  c22.377-48.279,3.058-108.753-44.942-132.299C95.817,1.097,46.705,66.162,46.016,69.769"/><path class="st0" d="M156.178,100.569c-3.974,19.753-16.948,64.637-44.65,57.507c-27.702-7.13-11.922-68.845,17.533-62.183  c29.455,6.662,12.039,58.793,19.403,60.78c7.364,1.987,25.23-11.908,28.987-31.091c4.265-21.779-13.638-47.005-37.403-53.066  c-27.046-6.898-57.366,11.666-65.689,39.741c-7.324,24.703,3.75,52.158,25.948,65.222c24.346,14.327,56.956,8.331,75.741-14.961"/></svg>