<?xml version="1.0" ?><svg height="256px" id="Layer_1" style="enable-background:new 0 0 256 256;" version="1.1" viewBox="0 0 256 256" width="256px" xml:space="preserve" xmlns="http://www.w3.org/2000/svg" xmlns:xlink="http://www.w3.org/1999/xlink"><style type="text/css">
	.st0{fill:none;stroke:#000000;stroke-width:4;stroke-linecap:round;stroke-linejoin:round;stroke-miterlimit:10;}
</style><path class="st0" d="M188.607,124.506c0.337,14.371,1.113,35.523-0.607,41.494c-1.721,5.971-7.793,11.639-12.954,13.966  c-5.161,2.328-73.88,1.012-77.524,0s-9.109-8.805-10.323-11.639c-1.214-2.834-0.607-72.059,0.81-77.827  c1.417-5.769,6.376-9.109,10.93-11.133c4.554-2.024,53.572-1.214,62.545-0.81c8.974,0.405,16.935,4.858,17.61,11.537  c0.675,6.68-3.982,9.378-9.514,8.906c-5.532-0.472-9.226-5.708-6.064-9.702c3.163-3.994,20.837-4.973,23.267,0.189  c2.431,5.162,2.529,17.624-0.81,20.653c-3.338,3.029-25.199-1.098-28.551,0.192c-3.352,1.29,13.271,14.273,2.416,34.204  c-7.113,11.467-22.672,16.821-35.043,10.317c-13.571-7.136-15.656-24.498-10.981-35.637c0.581-1.385,6.121-14.255,19.128-16.016  c7.639-1.034,22.265,2.277,17.205,6.831c-5.06,4.554-46.15-1.113-56.068,0.911"/><path class="st0" d="M108.728,29.947c-58.154,18.195-89.464,80.941-70.314,134.753c18.697,52.539,78.59,79.182,130.905,62.423  c53.036-16.99,85.907-74.73,70.015-128.38c-25.335-83.707-110.245-75.405-113.511-73.379"/></svg>