<?xml version="1.0" ?><svg height="256px" id="Layer_1" style="enable-background:new 0 0 256 256;" version="1.1" viewBox="0 0 256 256" width="256px" xml:space="preserve" xmlns="http://www.w3.org/2000/svg" xmlns:xlink="http://www.w3.org/1999/xlink"><style type="text/css">
	.st0{fill:none;stroke:#000000;stroke-width:4;stroke-linecap:round;stroke-linejoin:round;stroke-miterlimit:10;}
</style><path class="st0" d="M34.367,105.308c-15.255,58.994,21.499,118.714,77.309,130.865c54.491,11.864,108.741-24.931,122.132-78.209  c13.576-54.011-18.103-112.414-72.055-127.246C77.289,8.035,39.505,84.527,39.501,88.37"/><path class="st0" d="M106.662,168.972c-0.36-21.051,0.978-61.432-0.945-63.422  c-1.923-1.99-17.046-7.923-19.883-12.471c-2.838-4.548-2.011-13.662,8.126-13.674s11.419,8.666,8.78,14.31  c-2.64,5.644-17.584,9.811-19.288,12.105c-1.704,2.294-2.429,68.28,0,69.899c2.429,1.619,32.926,1.484,35.624-0.54  c2.699-2.024-3.374-67.47,0-69.09s17.407-1.889,19.162-1.079c1.754,0.81,0.675,7.692,1.889,8.366  c1.214,0.675,10.171-11.177,24.289-9.446c10.46,1.282,19.837,10.121,21.321,18.892s0.899,34.545,0.54,51.817  c-7.197,0.27-14.394,0.675-21.59,0.945c-0.27-14.574,1.08-33.6-0.81-43.586c-1.889-9.986-22.328-9.849-22.13,0  s1.619,43.586-2.699,43.451" id="linkedin"/></svg>