<?xml version="1.0" ?><svg height="256px" id="Layer_1" style="enable-background:new 0 0 256 256;" version="1.1" viewBox="0 0 256 256" width="256px" xml:space="preserve" xmlns="http://www.w3.org/2000/svg" xmlns:xlink="http://www.w3.org/1999/xlink"><style type="text/css">
	.st0{fill:none;stroke:#000000;stroke-width:4;stroke-linecap:round;stroke-linejoin:round;stroke-miterlimit:10;}
</style><path class="st0" d="M118.798,141.704c-5.674-2.229-11.754-3.242-12.362,5.066c-0.608,8.309,15.022,15.496,31.006,14.591  c14.178-0.803,30.197-4.762,30.196-19.455c-0.001-14.48-40.126-19.151-40.329-27.561c-0.203-8.41,24.419-1.798,26.953-0.811  s11.855,0.912,11.349-6.89c-0.507-7.802-16.01-10.796-27.359-10.743c-13.442,0.063-26.967,3.758-27.563,17.633  c-0.757,17.629,35.467,17.124,35.872,26.751c0.405,9.626-14.591,5.978-18.239,4.458"/><path class="st0" d="M158.316,183.046c12.69,6.133,27.371,4.533,36.681-3.85c12.176-10.964,13.701-32.216,1.013-47.219  c0.49-3.405,3.662-28.335-13.983-47.016c-15.978-16.916-42.448-21.746-65.863-11.551c-13.034-7.656-29.198-5.775-38.91,3.85  c-11.604,11.5-12.002,32.077,0.811,45.395c-0.376,2.676-3.614,29.004,16.415,48.232c17.487,16.787,39.483,15.467,42.963,15.199" id="skype"/><path class="st0" d="M65.761,200.763c44.191,41.954,114.243,38.779,151.938-4.133c36.804-41.898,30.94-107.186-9.156-144.738  c-40.648-38.069-107.086-38.693-146.225,1.294c-60.804,62.861-12.239,133.004-8.88,134.872"/></svg>