<?xml version="1.0" ?><svg height="256px" id="Layer_1" style="enable-background:new 0 0 256 256;" version="1.1" viewBox="0 0 256 256" width="256px" xml:space="preserve" xmlns="http://www.w3.org/2000/svg" xmlns:xlink="http://www.w3.org/1999/xlink"><style type="text/css">
	.st0{fill:none;stroke:#000000;stroke-width:4;stroke-linecap:round;stroke-linejoin:round;stroke-miterlimit:10;}
</style><path class="st0" d="M105.312,167.94c-1.301,0.222-9.976-0.071-17.542-6.207c-7.432-6.028-8.636-13.697-8.096-14.304  c0.54-0.607,12.507,1.183,12.684,0.54c0.364-1.319-8.036-4.696-13.764-11.065c-5.443-6.052-7.388-16.969-6.477-18.082  c0.911-1.113,11.737,5.442,12.145,4.858c0.91-1.304-7.026-6.762-9.716-16.193c-2.245-7.871,0.742-20.983,2.699-21.321  s11.913,13.943,24.289,20.781c12.112,6.692,27.494,12.077,29.957,9.446c2.463-2.631-3.812-19.027,11.875-29.147  c16.497-9.716,31.947,3.643,33.735,4.048s14.574-6.916,15.114-5.937s-8.434,11.774-7.287,12.954  c1.147,1.181,10.795-2.53,10.795-1.079c0,1.451-10.255,8.231-11.065,11.065s4.554,23.48-10.93,46.015  c-35.49,44.396-92.3,45.61-106.468,23.345"/><path class="st0" d="M21.015,135.515c3.231,60.848,56.272,106.718,113.149,101.487c55.533-5.107,96.174-56.539,92.888-111.376  c-3.33-55.592-51.135-101.734-107.049-99.619c-87.373,3.822-100.352,88.144-99.198,91.81"/></svg>
