<?xml version="1.0" ?><svg height="256px" id="Layer_1" style="enable-background:new 0 0 256 256;" version="1.1" viewBox="0 0 256 256" width="256px" xml:space="preserve" xmlns="http://www.w3.org/2000/svg" xmlns:xlink="http://www.w3.org/1999/xlink"><style type="text/css">
	.st0{fill:none;stroke:#000000;stroke-width:4;stroke-linecap:round;stroke-linejoin:round;stroke-miterlimit:10;}
</style><path class="st0" d="M237.584,119.688c-4.841-60.741-59.077-105.191-115.796-98.456C66.409,27.808,27.144,80.298,31.88,135.028  c4.801,55.484,53.81,100.345,109.649,96.75c87.242-6.134,97.983-90.77,96.732-94.404"/><path class="st0" d="M84.873,170.241c5.002,2.156,84.443,1.131,89.326,0.953c10.54-0.893,20.436-12.031,20.962-20.962  c0.526-8.931,1.548-40.375-0.238-47.879c-2.263-9.23-11.493-17.865-23.344-18.342c-9.528-0.595-79.262-0.238-87.182,1.191  S70.7,91.396,70.342,102.83c-0.357,11.434-0.929,50.615,1.191,54.786"/><path class="st0" d="M119.174,144.515c0.839,3.787,33.345-13.816,33.348-18.58c0.004-4.764-32.42-19.171-34.539-16.198  c-2.119,2.974-0.905,25.779-0.905,25.779"/></svg>